<svg width="158" height="70" fill="none" xmlns="http://www.w3.org/2000/svg"><path d="M93.768 34.994c0 .57-.018 1.14 0 1.712.197 5.802-1.633 11.03-4.57 15.96a71.538 71.538 0 0 0-2.775 5.062c-.7 1.42-1.673 2.414-3.185 2.996-.845.324-1.629.886-2.337 1.464-3.26 2.665-6.957 4.573-10.913 5.918-2.627.892-5.332 1.677-8.187 1.642-.85-.01-1.703.25-2.556.252-.853.003-1.704-.271-2.549-.235-3.68.156-7.09-.965-10.475-2.142-3.695-1.283-6.957-3.31-10.026-5.726-4.33-3.407-7.417-7.699-9.686-12.612-1.222-2.648-2.218-5.381-2.499-8.32-.047-.488-.21-.97-.355-1.443-1.03-3.297-.437-6.53.2-9.814.487-2.512.988-4.994 1.937-7.379 2.507-6.308 6.49-11.474 12.004-15.531 4.598-3.38 9.744-5.456 15.34-6.349 6.42-1.024 12.687-.287 18.769 2.106 3.034 1.198 5.897 2.715 8.398 4.724 2.332 1.873 4.436 4.065 6.423 6.305 1.802 2.03 3.08 4.449 4.222 6.916 1.783 3.855 2.946 7.845 2.828 12.132-.026.792-.007 1.577-.008 2.362Zm-2.465-7.81c-.178-1.347-.288-2.908-.621-4.422-.948-4.359-3.497-7.76-6.894-10.539-1.93-1.58-4.032-2.952-6.105-4.348-.702-.473-1.517-.907-2.337-1.053-2.107-.384-4.238-.743-6.374-.85-3.707-.188-7.037-1.135-9.835-3.686-2.06-1.877-4.303-2.059-6.444-.407-2.427 1.871-5.19 2.97-8.004 4.057-2.063.797-4.05 1.8-6.034 2.792-1.657.83-2.623 2.125-2.6 4.085.014 1.1-.495 2.018-1.524 2.627a23.442 23.442 0 0 0-2.467 1.691c-2.195 1.71-3.904 3.634-4.273 6.622-.292 2.363-1.015 4.7-2.65 6.645a4.432 4.432 0 0 0-.977 2.338c-.15 1.766-.088 3.554-.044 5.33.012.476.22.986.467 1.405.565.989 1.18 1.949 1.843 2.876 1.606 2.21 3.003 4.475 3.326 7.283.312 2.72 1.64 4.937 3.885 6.629 3.253 2.451 6.389 5.054 9.69 7.441 1.775 1.287 3.674 2.412 6.015 2.672 2.34.261 4.635.892 6.733 2.059.44.235.923.381 1.42.43 2.96.317 5.701-.409 8.301-1.78.816-.43 1.655-.82 2.499-1.195 2.032-.9 4.284-1.491 6.054-2.745 1.97-1.398 4.075-2.018 6.335-2.409.976-.17 1.774-.568 2.41-1.286.758-.853 1.46-1.755 2.25-2.58.818-.85 1.408-1.754 1.55-2.966.22-1.858 1.023-3.498 2.041-5.074 1.725-2.662 2.706-5.604 3.216-8.732.134-.82.21-1.515-.2-2.237-1.188-2.084-.704-4.45-1.079-6.669-.19-1.2.248-2.511.431-4.006l-.004.002Zm-14.29-20.82c-.5-.548-.66-.796-.887-.95-.41-.28-.857-.51-1.293-.753-3.726-2.078-7.808-3.088-11.978-3.813C62.018.7 61.137.767 60.282.799c-.222.008-.488.222-.629.415-.065.088.081.395.204.542a7.998 7.998 0 0 0 3.501 2.388 23.643 23.643 0 0 0 7.331 1.363c1.06.029 2.116.227 3.171.37.9.126 1.799.278 3.153.487Zm-31.66 59.883c-2.501-2.023-4.694-3.832-6.925-5.592-1.847-1.457-3.734-2.864-5.622-4.27-.213-.157-.547-.153-1.011-.271 2.275 3.78 9.872 9.523 13.558 10.133ZM28.501 19.029c1.509-1.14 2.904-2.341 4.437-3.335 2.148-1.385 2.97-3.108 2.462-6.065-1.524 1.234-2.611 2.72-3.787 4.071-1.242 1.424-2.163 3.12-3.199 4.715-.08.129.05.383.087.614ZM79.373 62.17c-1.407-.095-2.825.15-3.707.902-1.675 1.426-3.668 2.143-5.696 2.856-1.064.374-2.068.924-3.07 1.447-.139.072-.165.458-.136.685.01.076.385.202.54.15 1.82-.614 3.7-1.11 5.425-1.93 2.114-1.004 4.099-2.276 6.122-3.455.212-.118.324-.396.522-.655ZM25.614 42.397c-.404 1.18-.325 1.834-.07 2.53.705 1.93 1.134 3.968 2.405 5.654.472.626.568 2.025 1.438 1.723.765-.263-.13-1.37-.183-2.117-.2-2.853-1.716-5.152-3.59-7.79ZM39.263 6.872l.189.282c1.051-.386 2.113-.751 3.153-1.164a490.115 490.115 0 0 0 6.765-2.744c.453-.19.868-.493 1.255-.8.108-.088.089-.383.055-.566-.017-.081-.231-.17-.355-.175a2.24 2.24 0 0 0-.62.102c-3.056.859-5.938 2.13-8.696 3.674-.645.361-1.168.923-1.746 1.391ZM92.929 37.51c.185-.213.33-.301.34-.401.297-3.108-.035-6.189-.466-9.26-.021-.155-.237-.376-.385-.395-.162-.02-.415.113-.514.257a1.636 1.636 0 0 0-.292.77 29.224 29.224 0 0 0 .502 7.567c.097.503.518.946.815 1.462Zm-68.053-8.577c1.192-.45 1.37-1.265 1.499-2 .311-1.795 1.09-3.522.833-5.419-1.247 2.264-2.352 4.558-2.331 7.42h-.001Zm28.86 39.392c-2.672-1.17-3.397-1.294-5.777-.965 1.009.378 1.917.979 2.83.989.952.014 1.983 1.167 2.949-.024h-.001Z" fill="#3C322D"/><path d="M59.25 45.048c-1.828-.032-3.084-.79-4.014-2.253-.866-1.364-2.306-2.072-3.626-2.913-1.663-1.059-3.017-2.254-3.4-4.401-.267-1.456.043-2.72.64-3.87.501-.96 1.395-1.853 2.335-2.424 1.019-.62 1.863-1.204 2.334-2.349.532-1.316 1.874-1.396 3.062-1.633 1.118-.222 2.256-.365 3.359-.644 1.508-.381 2.877-.264 3.98.899.851.902 1.846 1.549 2.955 2.096 1.153.569 1.534 1.233 1.173 2.421-.246.807-.008 1.356.295 2 .332.702.673 1.415.902 2.157.76 2.467-.115 4.544-2.454 5.643-1.45.68-2.56 1.588-2.92 3.184-.145.644-.55 1.008-1.124 1.175-1.157.335-2.33.612-3.498.912Zm7.673-10.345c.037-4.347-3.292-7.822-7.621-7.828-3.885 0-7.792 2.602-7.944 7.588-.121 3.99 3.237 7.708 7.615 7.722 5.331.026 7.846-3.638 7.95-7.482ZM51.316 38.86c0-.557.054-.842-.008-1.1-.575-2.36-.948-4.7.355-6.974.094-.163-.123-.5-.196-.756-.255.082-.564.098-.757.255-2.152 1.748-3.112 5.945.606 8.575Zm7.99-13.074c.9.326 1.415.558 1.952.702 1.983.52 3.675 1.453 4.853 3.174.232.34.532.843.976.457.236-.207.313-.837.177-1.152-.183-.418-.6-.94-1.001-1.023-1.09-.225-1.686-1.006-2.396-1.687-1.194-1.135-2.528-1.491-4.56-.471Zm-.122 17.11-.027-.164c-.571 0-1.148-.048-1.71.02-.29.036-.552.279-.827.428.25.218.467.562.755.633 1.536.384 3.086.466 4.601-.12.26-.102.547-.233.71-.44.144-.175.19-.486.161-.722-.011-.088-.37-.22-.547-.193-1.04.162-2.077.365-3.112.556l-.004.002Zm7.86-4.458c1.064-.196 1.54-.79 1.602-1.703.046-.77.034-1.542-.034-2.31-.017-.203-.303-.384-.465-.575-.237.222-.718.52-.674.653.432 1.333-.472 2.527-.43 3.932v.003ZM76.783 44.456c-.061.03-.308.235-.575.263-.243.028-.598-.053-.749-.221a37.908 37.908 0 0 1-2.169-2.622c-.177-.238-.25-.878-.149-.933.333-.181.983-.371 1.128-.214.856.934 1.61 1.962 2.383 2.97.076.1.053.273.13.757ZM40.535 51.775c.396.031 1.178.055 1.94.184.19.032.444.4.444.62 0 .219-.22.598-.41.644-1.481.365-2.956.454-4.267-.526a.656.656 0 0 1-.209-.54c.029-.146.258-.35.413-.361.569-.048 1.139-.021 2.09-.021ZM86.968 20.917l.56.304c-.158.282-.256.734-.488.816a23.155 23.155 0 0 1-3.275.925c-.32.062-.785-.25-1.08-.506-.34-.298-.138-.944.292-1.009 1.262-.192 2.534-.34 3.99-.53ZM49.25 58.057c.594.274 1.09.351 1.332.644a23.16 23.16 0 0 1 1.816 2.567c.266.427.023.888-.425 1.011-.246.068-.691-.13-.872-.351a27.939 27.939 0 0 1-2.007-2.707c-.142-.224.078-.673.157-1.163ZM72.506 24.102c.037-.25 0-.535.118-.644.16-.144.502-.264.666-.186.225.107.37.398.525.627.43.637.854 1.278 1.263 1.93.183.293.429.604.444.92.018.29-.162.669-.383.869-.124.112-.632.04-.757-.116-.82-1.031-1.803-1.996-1.876-3.4ZM75.057 13.147c-.177 1.053-.248 1.828-.455 2.57-.13.401-.377.755-.71 1.017-.235.188-.645.16-.976.23-.027-.307-.123-.626-.067-.917.173-.897.404-1.783.612-2.673.016-.069.011-.143.032-.21.163-.537.516-.946 1.081-.724.285.112.418.604.483.707ZM59.759 19.995c.498.061 1.144.095 1.76.242.21.05.52.425.484.586-.064.29-.307.669-.564.755a2.153 2.153 0 0 1-1.249.006c-.71-.224-1.37-.298-2.079-.005-.465.193-.901-.01-1.025-.468-.166-.614.3-.912.825-.998.559-.093 1.136-.078 1.848-.118ZM70.826 50.247c-.202.871-.355 1.636-.573 2.382-.042.147-.355.344-.486.311-.236-.057-.568-.241-.616-.433a2.85 2.85 0 0 1-.035-1.262c.167-.765.33-1.492.018-2.274-.15-.374-.107-.972.468-.97.31 0 .755.379.894.692.227.501.242 1.09.33 1.554ZM62.095 50.023c-.115.205-.171.446-.323.55-.934.637-1.87 1.276-2.853 1.834-.252.142-.692.054-1.013-.04-.47-.138-.567-.748-.177-.996a77.501 77.501 0 0 1 3.265-1.986c.177-.101.532.007.761.12.155.077.222.326.34.518ZM50.191 9.09c.152.087.438.165.476.303.37 1.352.728 2.71 1.023 4.078.082.38-.427.591-.767.364-1.073-.714-1.741-3.36-1.116-4.466.065-.11.223-.165.384-.28ZM63.447 12.93c-.323-.213-.672-.322-.719-.506-.05-.2.117-.541.298-.702.787-.696 1.61-1.35 2.466-1.962.289-.2.888-.343 1.11-.186.523.364.248.878-.117 1.253-.49.506-.976 1.04-1.54 1.449-.433.308-.988.44-1.498.655ZM43.05 20.075l-.784.733c-.224-.24-.556-.438-.65-.724a52.002 52.002 0 0 1-.99-3.402c-.041-.157.089-.479.222-.533.217-.088.575-.123.74 0 .325.238.697.556.803.913.28.93.427 1.903.659 3.013ZM34.463 38.843c-.72 1.305-1.266 2.641-2.606 3.353-.225.12-.724-.033-.965-.224-.41-.322 0-.59.2-.864.628-.856 1.21-1.75 1.878-2.574.172-.211.61-.315.906-.286.203.018.368.358.587.595ZM42.591 38.954c.375.215.648.279.698.42.084.232.127.596 0 .757-.206.256-.558.403-.861.575-.787.447-1.563.918-2.382 1.299-.249.116-.7.08-.922-.076-.457-.322-.297-.838.07-1.065 1.124-.696 2.305-1.305 3.397-1.91ZM83.27 33.045c-.289.645-.695 1.618-1.177 2.553-.075.145-.541.224-.739.137-.184-.081-.384-.447-.347-.645.194-1.04.407-2.084.733-3.088.1-.306.548-.584.893-.687.128-.037.463.44.621.73.091.165.016.417.016 1ZM34.237 25.291c1.274 1.13 1.122 2.665 1.263 4.083.027.263-.304.64-.569.83-.138.1-.7-.06-.714-.153a80.74 80.74 0 0 1-.478-4.311c-.01-.123.29-.273.498-.448ZM63.99 60.288c.214.056.424.124.63.204.764.35 1.533.692 2.28 1.078.354.182.71.41.965.702.294.338-.042.986-.453.898-1.387-.297-2.743-.711-3.781-1.738-.154-.151-.15-.532-.1-.783.029-.142.297-.24.46-.361ZM47.103 25.705c.073.227.325.58.237.8-.466 1.172-1.006 2.317-1.555 3.453-.067.14-.355.263-.525.24-.15-.018-.355-.225-.394-.382-.291-1.266.627-3.533 1.65-4.103.105-.06.274-.008.587-.008ZM86.782 44.93c-.16-.1-.492-.222-.665-.459-.07-.093.154-.522.347-.658a31.482 31.482 0 0 1 2.633-1.727c.245-.14.754-.151.934.008.166.147.191.701.041.905-.761 1.05-1.721 1.85-3.29 1.93ZM81.51 53.966c-.658-.068-.945-.075-1.219-.135-.116-.026-.29-.162-.291-.25a.93.93 0 0 1 .15-.566c.141-.159.326-.273.532-.33 1.015-.301 2.031-.604 3.061-.849.224-.053.695.093.724.22.068.3-.013.662-.132.965-.063.16-.314.293-.506.35-.882.24-1.768.454-2.319.595ZM50.947 46.713c-.073.307-.191.985-.42 1.625-.056.158-.5.311-.704.253-.204-.058-.443-.39-.437-.598.021-1.184.08-2.37.202-3.548.026-.257.355-.483.545-.724.227.238.595.448.653.72.128.611.101 1.254.16 2.272ZM98.513 9.674c0-2.508.613-4.409 1.839-5.704 1.24-1.31 2.829-1.964 4.765-1.964 1.937 0 3.476.565 4.618 1.695 1.157 1.13 1.735 2.935 1.735 5.415s-.613 4.354-1.839 5.622c-1.226 1.267-2.863 1.9-4.911 1.9-1.769 0-3.218-.502-4.347-1.508-.585-.523-1.045-1.247-1.379-2.17-.32-.937-.48-2.032-.48-3.286Zm6.541-7.46c-1.407 0-2.563.62-3.469 1.86-.891 1.24-1.337 3.058-1.337 5.455 0 2.398.425 4.148 1.275 5.25.849 1.102 1.978 1.653 3.385 1.653 1.421 0 2.577-.62 3.469-1.86.906-1.254 1.358-3.065 1.358-5.435 0-2.384-.431-4.134-1.295-5.25-.85-1.116-1.979-1.674-3.386-1.674ZM115.084 16.556h-1.734V2.09h1.734v6.655h6.792V2.089h1.735v14.467h-1.735V8.951h-6.792v7.605ZM132.527 16.556h-.272l1.818-14.467h.69l4.388 13.372 4.368-13.372h.69l1.818 14.467h-1.735L142.85 4.983l-3.782 11.573h-1.317l-3.824-11.429-1.4 11.43ZM157.603 2.09c.265.26.397.598.397 1.012 0 .344-.077.696-.23 1.054l-3.741 7.502v4.898h-1.734v-4.443l-4.18-10.024h1.777l3.991 9.321 3.636-7.254c.154-.345.23-.703.23-1.075s-.104-.661-.313-.868l.167-.124ZM2.946 20.358a70.486 70.486 0 0 1 3.167-.073c1.056 0 2.16.109 3.314.327 1.179.219 2.333.632 3.462 1.239a8.997 8.997 0 0 1 2.91 2.294c.81.923 1.46 2.149 1.951 3.678.491 1.53.737 3.388.737 5.573 0 2.185-.369 4.152-1.105 5.9-.712 1.724-1.694 3.047-2.946 3.97-2.43 1.796-5.365 2.695-8.802 2.695a52.01 52.01 0 0 1-3.793-.146H0V20.358h2.946Zm.11 25.165c.516.05 1.167.073 1.952.073.786 0 1.375-.012 1.768-.036.393-.024.933-.122 1.62-.291a9.534 9.534 0 0 0 1.915-.765c.59-.316 1.203-.777 1.842-1.384a9.068 9.068 0 0 0 1.694-2.222c1.055-1.99 1.583-4.589 1.583-7.794 0-2.282-.282-4.249-.847-5.9-.565-1.675-1.215-2.913-1.952-3.714a7.597 7.597 0 0 0-2.614-1.894c-1.031-.486-1.854-.765-2.468-.838a18.336 18.336 0 0 0-2.136-.11c-.81 0-1.595.037-2.356.11v24.765ZM99.111 45.815h-.479V20.32h1.252l15.32 23.564V20.32h.479v25.494h-2.688L99.111 24.69v21.124ZM138.359 20.321h.479v14.568c0 3.812-.761 6.616-2.283 8.413-1.522 1.772-3.511 2.659-5.966 2.659-1.547 0-2.86-.134-3.94-.401-1.081-.291-2.099-.813-3.057-1.566-1.964-1.505-2.946-4.54-2.946-9.105V20.321h3.057v14.531c0 4.42.675 7.37 2.025 8.85.687.729 1.399 1.227 2.136 1.494.761.267 1.669.4 2.725.4 2.357 0 4.235-.85 5.634-2.549 1.424-1.724 2.136-4.455 2.136-8.194V20.32ZM151.401 45.815h-3.057v-25.13h-6.371v-.364h15.836v.364h-6.408v25.13Z" fill="#3C322D"/></svg>